<?xml version="1.0" standalone="no"?>
<!DOCTYPE svg PUBLIC "-//W3C//DTD SVG 20010904//EN"
 "http://www.w3.org/TR/2001/REC-SVG-20010904/DTD/svg10.dtd">
<svg version="1.0" xmlns="http://www.w3.org/2000/svg"
 width="1024.000000pt" height="1024.000000pt" viewBox="0 0 1024.000000 1024.000000"
 preserveAspectRatio="xMidYMid meet">
<metadata>
Created by potrace 1.14, written by Peter Selinger 2001-2017
</metadata>
<g transform="translate(0.000000,1024.000000) scale(0.100000,-0.100000)"
fill="#000000" stroke="none">
<path d="M0 5120 l0 -5120 5120 0 5120 0 0 5120 0 5120 -5120 0 -5120 0 0
-5120z m6429 1098 c0 -644 -3 -827 -12 -807 -7 14 -131 292 -277 617 l-265
592 -242 0 -243 0 0 -1658 0 -1657 224 -175 225 -175 -445 -3 c-244 -1 -644
-1 -888 0 l-444 3 224 173 224 173 0 1660 0 1659 -242 0 -243 0 -245 -548
c-134 -301 -259 -578 -277 -617 l-32 -70 -1 833 0 832 1480 0 1480 0 -1 -832z"/>
<path d="M4947 6645 c-12 -68 -127 -978 -127 -1003 0 -13 30 -66 66 -118 l66
-95 64 95 c47 70 64 104 63 128 0 18 -28 258 -63 533 -46 370 -64 490 -69 460z"/>
<path d="M4890 5108 c-35 -46 -67 -88 -72 -94 -5 -7 19 -46 63 -103 39 -51 73
-91 74 -89 2 2 35 43 74 92 45 56 68 93 63 100 -17 21 -134 171 -137 174 -1 1
-31 -35 -65 -80z"/>
<path d="M4886 4486 c-38 -54 -66 -105 -66 -119 0 -29 128 -1039 133 -1043 3
-3 128 1022 127 1049 0 9 -29 60 -64 113 l-64 95 -66 -95z"/>
</g>
</svg>
